<?xml version="1.0" encoding="UTF-8" standalone="no"?>
<!-- Created with Inkscape (http://www.inkscape.org/) -->

<svg
   xmlns:dc="http://purl.org/dc/elements/1.1/"
   xmlns:cc="http://creativecommons.org/ns#"
   xmlns:rdf="http://www.w3.org/1999/02/22-rdf-syntax-ns#"
   xmlns:svg="http://www.w3.org/2000/svg"
   xmlns="http://www.w3.org/2000/svg"
   xmlns:sodipodi="http://sodipodi.sourceforge.net/DTD/sodipodi-0.dtd"
   xmlns:inkscape="http://www.inkscape.org/namespaces/inkscape"
   width="41.319256mm"
   height="41.30624mm"
   viewBox="0 0 146.40681 146.36069"
   id="svg2"
   version="1.1"
   inkscape:version="0.91 r13725"
   sodipodi:docname="logo.svg">
  <defs
     id="defs4" />
  <sodipodi:namedview
     id="base"
     pagecolor="#ffffff"
     bordercolor="#666666"
     borderopacity="1.0"
     inkscape:pageopacity="0.0"
     inkscape:pageshadow="2"
     inkscape:zoom="2.8"
     inkscape:cx="46.888958"
     inkscape:cy="34.554872"
     inkscape:document-units="px"
     inkscape:current-layer="layer1"
     showgrid="false"
     fit-margin-top="0"
     fit-margin-left="0"
     fit-margin-right="0"
     fit-margin-bottom="0"
     inkscape:window-width="1920"
     inkscape:window-height="1017"
     inkscape:window-x="-8"
     inkscape:window-y="-8"
     inkscape:window-maximized="1" />
  <metadata
     id="metadata7">
    <rdf:RDF>
      <cc:Work
         rdf:about="">
        <dc:format>image/svg+xml</dc:format>
        <dc:type
           rdf:resource="http://purl.org/dc/dcmitype/StillImage" />
        <dc:title></dc:title>
      </cc:Work>
    </rdf:RDF>
  </metadata>
  <g
     inkscape:label="Livello 1"
     inkscape:groupmode="layer"
     id="layer1"
     transform="translate(-101.13034,-324.92111)">
    <path
       style="fill:#ffffff"
       d="m 169.20389,471.19582 c -15.63666,-1.08579 -29.96862,-6.84893 -42.16816,-16.95659 -2.04495,-1.6943 -7.20842,-6.87988 -8.94941,-8.98773 -6.08343,-7.36533 -10.25639,-14.82046 -13.18198,-23.55 -2.70451,-8.0699 -3.7839,-14.8698 -3.77393,-23.775 0.008,-6.9064 0.65572,-12.14226 2.28815,-18.4885 6.5564,-25.48868 26.73999,-45.67226 52.22866,-52.22867 6.34625,-1.63243 11.58211,-2.28043 18.48851,-2.28815 8.9052,-0.01 15.7051,1.06942 23.775,3.77393 8.72954,2.92559 16.18467,7.09855 23.55,13.18198 2.10785,1.74099 7.29343,6.90446 8.98773,8.94941 11.65586,14.06815 17.55531,31.05599 17.05987,49.125 -0.10309,3.76007 -0.26781,5.82131 -0.71317,8.925 -2.23337,15.56388 -9.43709,29.93211 -20.60721,41.10222 -12.09557,12.09557 -27.74278,19.43486 -44.92722,21.07299 -2.32969,0.22208 -9.67035,0.30981 -12.05684,0.14411 z m 9.74756,-3.59396 c 9.30594,-0.71995 17.78194,-3.00453 25.78428,-6.94979 6.92416,-3.41369 12.4094,-7.28871 17.97814,-12.70057 5.93958,-5.77224 10.3074,-11.7365 13.96397,-19.06778 6.70423,-13.44175 8.8309,-28.3959 6.14105,-43.18222 -4.67437,-25.69528 -23.77764,-46.94286 -48.88316,-54.37019 -9.33116,-2.76057 -18.71083,-3.53286 -28.22357,-2.32382 -23.0779,2.93312 -43.25425,17.28963 -53.75369,38.24852 -5.76996,11.51796 -8.25099,24.87826 -6.96296,37.49549 1.53022,14.98966 7.47328,28.44421 17.5545,39.74181 11.18645,12.53617 26.61657,20.62973 43.33572,22.73089 4.08909,0.51389 9.34215,0.66573 13.06572,0.37766 z m -3.54072,-21.00569 c -1.22569,-0.25284 -2.82876,-1.16421 -3.82341,-2.17365 -1.7345,-1.76031 -2.47659,-3.93901 -2.47659,-7.27102 0,-2.76126 0.49765,-4.70348 1.62276,-6.33323 1.15603,-1.67455 3.02535,-2.94132 4.93865,-3.34677 2.15051,-0.45571 5.15505,-0.19649 6.88099,0.59367 0.93766,0.42928 2.43576,1.79118 2.96425,2.69478 0.43812,0.74908 0.84335,2.06745 0.84335,2.74378 l 0,0.49777 -2.23808,0 -2.23808,0 -0.095,-0.43241 c -0.14426,-0.65683 -1.09706,-1.66645 -1.94552,-2.06153 -2.11362,-0.98422 -4.73683,0.20723 -5.61317,2.54947 -1.04058,2.7812 -0.61908,5.97768 0.98297,7.45439 1.65546,1.52596 3.69236,1.69379 5.41467,0.44615 0.52892,-0.38314 1.52623,-1.77969 1.53078,-2.14357 7.8e-4,-0.0619 -0.87609,-0.1125 -1.94859,-0.1125 l -1.95,0 0,-1.875 0,-1.875 4.05,0 4.05,0 0,5.175 0,5.175 -1.57214,0 c -1.51009,0 -1.57485,-0.0133 -1.64059,-0.3375 -0.0377,-0.18562 -0.10866,-0.5269 -0.15782,-0.75838 l -0.0894,-0.42088 -0.68548,0.60338 c -1.08886,0.95846 -2.0472,1.25208 -4.2546,1.30356 -1.03125,0.0241 -2.17875,-0.0189 -2.55,-0.0955 z m -41.04192,-0.29449 c -3.23252,-0.47374 -5.47137,-2.56929 -6.38579,-5.97706 -0.40365,-1.50429 -0.44542,-5.23029 -0.0773,-6.89441 0.73172,-3.30769 2.84047,-5.54565 5.90793,-6.26991 1.36964,-0.32339 4.06482,-0.20951 5.46955,0.2311 2.5931,0.81337 4.5395,3.13335 4.74165,5.65173 l 0.0769,0.95837 -2.23303,-0.005 -2.23304,-0.005 -0.525,-1.06971 c -0.45705,-0.93127 -0.62642,-1.12635 -1.30861,-1.5073 -1.49184,-0.83307 -2.98839,-0.5259 -4.21235,0.86459 -1.4337,1.62877 -1.8131,5.31321 -0.78826,7.65501 0.57071,1.30408 2.09186,2.46348 3.23422,2.46508 1.41296,0.002 2.80905,-1.06959 3.29341,-2.52786 l 0.2557,-0.76984 2.23795,0 2.23794,0 0,0.44429 c 0,0.69343 -0.6685,2.62743 -1.18804,3.43707 -0.68676,1.07023 -1.97472,2.22028 -3.04818,2.72181 -1.41162,0.65952 -3.48272,0.88616 -5.4557,0.59701 z m 9.09192,-2.02518 0,-2.175 2.25,0 2.25,0 0,2.175 0,2.175 -2.25,0 -2.25,0 0,-2.175 z m 5.55,-7.125 0,-9.3 2.31785,0 2.31784,0 3.11966,5.48352 3.11965,5.48352 0.0394,-5.48352 0.0393,-5.48352 2.09815,0 2.09815,0 0,9.3 0,9.3 -2.21563,0 -2.21563,0 -3.22187,-5.61316 -3.22187,-5.61315 -0.0393,5.61315 -0.0393,5.61316 -2.09819,0 -2.0982,0 0,-9.3 z m 16.2,7.125 0,-2.175 2.175,0 2.175,0 0,2.175 0,2.175 -2.175,0 -2.175,0 0,-2.175 z m 21.75,0 0,-2.175 2.175,0 2.175,0 0,2.175 0,2.175 -2.175,0 -2.175,0 0,-2.175 z m 4.95,-7.125 0,-9.3 6.9,0 6.9,0 0,1.95 0,1.95 -4.725,0 -4.725,0 0,1.5 0,1.5 4.35,0 4.35,0 0,1.95 0,1.95 -4.35,0 -4.35,0 0,1.875 0,1.875 4.95,0 4.95,0 0,2.025 0,2.025 -7.125,0 -7.125,0 0,-9.3 z m 14.85,7.125 0,-2.175 2.175,0 2.175,0 0,2.175 0,2.175 -2.175,0 -2.175,0 0,-2.175 z m 4.95,-7.125 0,-9.3 2.25,0 2.25,0 0,9.3 0,9.3 -2.25,0 -2.25,0 0,-9.3 z m 4.95,7.125 0,-2.175 2.25,0 2.25,0 0,2.175 0,2.175 -2.25,0 -2.25,0 0,-2.175 z M 117.41189,422.789 c -2.31118,-5.2138 -3.95689,-11.56549 -4.73177,-18.2625 -0.29633,-2.56107 -0.24579,-10.7027 0.0838,-13.5 1.44134,-12.23277 6.11099,-23.24666 13.81176,-32.57657 1.72208,-2.0864 5.99708,-6.3614 8.08347,-8.08348 9.32974,-7.70062 20.33273,-12.3659 32.57658,-13.81248 3.20152,-0.37825 11.10719,-0.37882 14.1735,-10e-4 14.32876,1.76546 26.72544,7.69279 36.56786,17.48451 9.8799,9.82902 15.82637,21.86643 17.75252,35.93632 0.4431,3.23667 0.55674,10.56079 0.21894,14.10964 -0.61316,6.44153 -2.14254,12.57241 -4.59138,18.40558 l -0.48803,1.1625 -56.53746,0 -56.53746,0 -0.38233,-0.8625 z m 84.0366,-5.75373 c 0.25451,-0.0774 0.63837,-0.32477 0.85301,-0.54974 0.5499,-0.57637 1.25668,-2.44759 1.44752,-3.83238 0.29586,-2.14679 0.1372,-9.11694 -0.38217,-16.78915 l -0.099,-1.4625 0.36838,0 c 0.20816,0 0.53651,0.17941 0.75494,0.4125 0.87981,0.93885 1.24019,2.18653 1.76978,6.12725 0.1674,1.24562 0.40718,2.66312 0.53286,3.15 0.73101,2.8321 2.4281,4.62637 4.55851,4.81955 2.04721,0.18563 5.06222,-1.25475 7.65917,-3.65907 3.66656,-3.39458 7.04557,-9.57995 8.28368,-15.1635 0.43334,-1.95424 0.47294,-5.62259 0.0765,-7.08673 -0.71749,-2.64986 -2.00613,-4.24691 -3.88799,-4.81851 -0.93477,-0.28393 -1.13846,-0.29797 -1.97025,-0.13587 -1.31596,0.25647 -2.81021,0.91176 -4.85541,2.1293 -3.4732,2.06765 -4.6428,2.52508 -6.45633,2.52508 -0.97278,0 -1.14853,-0.0439 -1.47278,-0.36818 -0.48306,-0.48307 -0.47754,-1.15346 0.0177,-2.14725 0.50475,-1.01289 1.59263,-1.98806 4.01236,-3.59666 2.45498,-1.63203 3.94447,-2.80759 4.63451,-3.65771 0.84272,-1.03821 1.34781,-2.18029 1.43286,-3.23987 0.0673,-0.83781 0.0233,-1.04657 -0.40252,-1.91152 -1.54441,-3.13715 -5.66924,-5.50791 -11.41307,-6.55973 -2.47198,-0.45268 -7.27802,-0.45268 -9.75,0 -2.43924,0.44667 -4.18477,0.98328 -5.97927,1.83812 -2.62917,1.25245 -4.35312,2.70452 -5.34571,4.50264 -0.38921,0.70508 -0.44944,0.96709 -0.44601,1.94016 0.008,2.28549 1.32794,3.89583 5.51807,6.73231 2.98363,2.01974 3.99502,2.90467 4.51706,3.95226 0.50164,1.00668 0.50172,1.66321 3e-4,2.16468 -0.37048,0.37047 -0.43967,0.38287 -1.7625,0.3159 -1.70476,-0.0863 -2.4329,-0.35614 -4.99049,-1.84937 -2.7679,-1.61602 -4.52983,-2.44087 -5.80486,-2.71756 -1.07196,-0.23262 -1.14847,-0.22989 -2.15919,0.0771 -2.09186,0.63539 -3.46582,2.49502 -4.00793,5.42468 -0.16281,0.87985 -0.21812,0.97946 -0.56669,1.0207 -0.34053,0.0403 -0.39889,-0.0219 -0.49285,-0.525 -0.13736,-0.73549 -0.96482,-2.52673 -1.58081,-3.42204 -1.58073,-2.29751 -4.19165,-3.9423 -7.15931,-4.5101 -1.90499,-0.36449 -3.72601,-0.19877 -5.80559,0.52831 -1.43686,0.50238 -3.73575,1.94158 -4.42185,2.76828 -0.10948,0.13192 -0.36813,0.23985 -0.57478,0.23985 -0.3596,0 -0.37224,-0.0306 -0.29466,-0.7125 0.0446,-0.39187 0.1868,-1.185 0.31604,-1.7625 0.69444,-3.10292 0.63148,-5.73687 -0.21574,-9.02518 -1.02852,-3.99182 -3.46894,-8.83037 -6.55045,-12.98732 -0.53512,-0.72187 -1.02687,-1.3125 -1.09278,-1.3125 -0.0659,0 -0.55766,0.59063 -1.09278,1.3125 -4.75771,6.41814 -7.60736,13.82375 -7.22935,18.7875 0.0534,0.70125 0.26023,2.09995 0.45961,3.10822 0.46638,2.3584 0.46691,2.59178 0.006,2.59178 -0.19614,0 -0.44621,-0.10793 -0.55569,-0.23985 -0.6861,-0.8267 -2.98499,-2.2659 -4.42185,-2.76828 -2.08024,-0.72731 -3.91179,-0.89391 -5.79013,-0.52666 -3.7987,0.74271 -6.51483,2.8124 -8.08372,6.15979 -1.81913,3.88132 -1.17229,8.20051 1.68564,11.25564 1.89109,2.02159 5.07322,3.5678 7.99891,3.88672 0.49416,0.0539 1.14756,0.1335 1.45199,0.17696 0.54328,0.0775 0.5553,0.0684 0.64977,-0.49515 0.33181,-1.97933 1.05472,-3.40205 2.07008,-4.07398 0.51796,-0.34277 0.75246,-0.39551 1.7377,-0.39082 1.21441,0.006 1.78599,0.20904 2.35889,0.83888 0.46297,0.50897 0.80505,1.24757 0.80505,1.73819 0,0.37683 -0.0763,0.44675 -0.65713,0.60209 -1.13823,0.30443 -2.19287,1.51174 -2.19287,2.51031 0,0.96415 1.12212,2.33638 2.08314,2.54746 0.62036,0.13625 0.62158,0.62478 0.004,1.52271 -0.53577,0.77871 -1.36736,1.42997 -2.53692,1.98677 -0.75615,0.35998 -1.02859,0.39908 -3.2644,0.46849 l -2.4394,0.0757 0.55309,0.825 c 0.76401,1.13963 2.37318,2.69774 3.29149,3.18705 1.23507,0.65809 2.48612,0.9142 3.90379,0.79917 l 1.2237,-0.0993 0.70838,1.06556 c 1.64206,2.47 4.3305,5.0288 6.32133,6.01649 l 0.92298,0.45791 0.6775,-0.2997 c 1.19082,-0.52675 2.53989,-1.53498 3.90175,-2.91597 1.34707,-1.36599 2.99827,-3.45504 3.17768,-4.02031 0.0935,-0.2945 0.16937,-0.30582 1.40354,-0.20927 1.50437,0.11768 2.72226,-0.1256 3.97779,-0.79459 0.91831,-0.48931 2.52748,-2.04742 3.29149,-3.18705 l 0.55309,-0.825 -2.4394,-0.0757 c -2.23582,-0.0694 -2.50825,-0.10851 -3.2644,-0.46849 -1.16956,-0.5568 -2.00116,-1.20806 -2.53692,-1.98677 -0.6178,-0.89793 -0.61658,-1.38646 0.004,-1.52271 0.96102,-0.21108 2.08314,-1.58331 2.08314,-2.54746 0,-0.99857 -1.05464,-2.20588 -2.19287,-2.51031 -0.58082,-0.15534 -0.65713,-0.22526 -0.65713,-0.60209 0,-0.49062 0.34208,-1.22922 0.80505,-1.73819 0.5709,-0.62764 1.14529,-0.83311 2.34495,-0.83884 0.92189,-0.004 1.22693,0.0576 1.68961,0.34365 1.01525,0.62758 1.6775,1.85314 2.06443,3.82044 l 0.1718,0.8735 0.54958,-0.0784 c 0.30227,-0.0431 0.95389,-0.12242 1.44806,-0.17629 1.09558,-0.11942 2.98808,-0.65835 4.20152,-1.19647 2.15424,-0.95532 4.20821,-2.76421 5.22611,-4.60252 0.54759,-0.98895 1.14889,-2.74704 1.14889,-3.35917 0,-0.27756 0.0805,-0.3592 0.35435,-0.3592 0.31921,0 0.3643,0.0847 0.4547,0.85387 0.50245,4.27503 3.38958,10.57109 6.63324,14.46531 2.97211,3.56821 6.87235,5.87984 9.51613,5.64012 2.13343,-0.19346 3.82732,-1.98698 4.56106,-4.82933 0.12708,-0.49226 0.40176,-2.12389 0.6104,-3.62583 0.5141,-3.70073 0.83314,-4.73328 1.76634,-5.71664 0.63295,-0.66698 1.21144,-0.6682 1.44331,-0.003 0.30769,0.88265 0.50085,4.91914 0.5008,10.46556 l -6e-5,5.475 -0.40228,1.18696 c -0.46413,1.3694 -1.12649,2.55999 -2.2834,4.10439 -0.44964,0.60024 -0.775,1.16017 -0.72302,1.24427 0.10863,0.17578 2.42292,0.0461 3.15619,-0.17685 z m -54.68776,-1.80237 c -1.74966,-1.10498 -4.95,-4.63653 -4.95,-5.46228 0,-0.23045 0.30899,-0.64259 0.91541,-1.221 1.7211,-1.6416 3.17122,-4.25226 3.63513,-6.54437 l 0.18798,-0.92875 1.69596,0 1.69596,0 0.34494,1.35 c 0.18972,0.7425 0.48593,1.67462 0.65825,2.07137 0.52775,1.2151 1.65416,2.82246 2.73623,3.90452 0.67282,0.67283 1.03014,1.14911 1.03014,1.37313 0,0.83275 -3.34947,4.49869 -5.04462,5.52124 -1.21074,0.73035 -1.66357,0.72039 -2.90538,-0.0639 z m -10.61926,-7.00907 c -0.99192,-0.35069 -1.89164,-1.06159 -1.9499,-1.54068 -0.0415,-0.34155 0.0199,-0.37323 1.03219,-0.53264 2.39054,-0.37641 4.76465,-2.05907 5.84048,-4.13946 l 0.52149,-1.00844 1.6875,-5.5e-4 1.6875,-5.6e-4 0,0.5842 c 0,0.7724 -0.51447,2.42325 -1.10216,3.53659 -0.61329,1.16186 -1.79183,2.33149 -2.89512,2.87323 -0.77225,0.37919 -1.06698,0.43568 -2.45272,0.47005 -1.23114,0.0305 -1.7484,-0.0222 -2.36926,-0.24174 z m 19.88662,-0.013 c -1.44945,-0.56664 -2.73236,-1.79605 -3.53163,-3.38433 -0.44961,-0.89347 -0.93573,-2.57708 -0.93573,-3.2408 l 0,-0.5842 1.6875,6e-4 1.6875,6e-4 0.52149,1.00844 c 1.07583,2.08039 3.44994,3.76305 5.84048,4.13946 1.01975,0.16058 1.07403,0.18904 1.03219,0.54136 -0.0586,0.49343 -1.11471,1.28729 -2.103,1.58078 -1.09261,0.32447 -3.29357,0.29206 -4.1988,-0.0618 z m 34.60764,-1.04043 c -1.93485,-0.88522 -4.13952,-3.90954 -4.81343,-6.60296 -0.31754,-1.2691 -0.25656,-4.83803 0.0884,-5.17596 0.35188,-0.34469 4.09817,-1.94785 5.93123,-2.53818 1.68259,-0.54186 4.37261,-1.1518 5.07983,-1.1518 0.30808,0 0.38894,0.0732 0.38894,0.35195 0,0.19358 -0.10375,0.55993 -0.23056,0.81412 -0.51224,1.02682 -0.66417,2.42168 -0.66684,6.12244 -0.003,3.84863 -0.17008,5.07563 -0.8825,6.47208 -0.33541,0.65747 -1.3422,1.6292 -1.91271,1.84611 -0.63806,0.24259 -2.32092,0.16484 -2.98239,-0.1378 z m 19.65,0.0463 c -0.73247,-0.37911 -1.53405,-1.25592 -1.87703,-2.05321 -0.60903,-1.41572 -0.74246,-2.53279 -0.74797,-6.26203 -0.005,-3.60703 -0.16166,-5.01604 -0.66944,-6.03393 -0.12681,-0.25419 -0.23056,-0.62054 -0.23056,-0.81412 0,-0.27878 0.0809,-0.35195 0.38894,-0.35195 0.70855,0 3.39868,0.61039 5.07983,1.15261 1.87187,0.60373 5.58895,2.19091 5.93068,2.53239 0.34548,0.34522 0.40672,3.91101 0.089,5.18094 -0.67919,2.71451 -2.85169,5.69344 -4.81343,6.60015 -0.76662,0.35433 -2.50787,0.3815 -3.15,0.0492 z m -71.23929,-7.80095 c -0.15468,-0.15469 -0.23571,-0.50763 -0.23571,-1.02676 0,-1.38527 -0.71934,-1.28753 9.47606,-1.28753 10.18604,0 9.42394,-0.10623 9.42394,1.3136 0,1.33175 0.72878,1.2364 -9.45,1.2364 -7.96234,0 -9.00525,-0.0267 -9.21429,-0.23571 z m -9.79867,-3.57616 c -3.81597,-1.04662 -6.42055,-3.4318 -7.15642,-6.5536 -0.29644,-1.25755 -0.29873,-4.00242 -0.004,-5.16551 0.83847,-3.31249 3.48063,-5.8384 6.90373,-6.59996 1.74185,-0.38753 4.55259,-0.25402 6.14353,0.29182 4.06324,1.39405 7.14383,5.2121 9.28938,11.51315 0.63461,1.86371 1.09058,3.84838 1.23081,5.35729 l 0.0993,1.06868 -1.97625,0 c -1.75011,0 -1.98587,-0.03 -2.06032,-0.2625 -0.0462,-0.14437 -0.31563,-0.74747 -0.59865,-1.3402 -1.03021,-2.15767 -2.98196,-3.16249 -5.0351,-2.59224 -1.40603,0.39051 -2.9724,2.09071 -3.51656,3.81701 l -0.26099,0.82793 -0.9101,-0.0112 c -0.50056,-0.006 -1.46719,-0.16396 -2.14807,-0.3507 z m 34.70676,-0.46606 c -0.54416,-1.7263 -2.11054,-3.4265 -3.51656,-3.81701 -2.05314,-0.57025 -4.00489,0.43457 -5.0351,2.59224 -0.28302,0.59273 -0.55241,1.19583 -0.59865,1.3402 -0.0744,0.23227 -0.30919,0.2625 -2.03878,0.2625 l -1.95471,0 6e-4,-0.4875 c 0.003,-2.12849 1.46023,-7.10611 2.94654,-10.06224 1.28193,-2.54966 3.50146,-5.1612 5.37786,-6.32772 1.6987,-1.05604 3.1048,-1.46067 5.35193,-1.54012 2.32005,-0.082 3.65737,0.17454 5.3411,1.02466 1.49878,0.75674 2.39361,1.54375 3.30561,2.90731 1.11114,1.66129 1.4016,2.63161 1.48494,4.96061 0.11594,3.24002 -0.49856,4.99845 -2.41697,6.9163 -0.84592,0.84568 -1.36145,1.20862 -2.49161,1.75409 -1.62077,0.78227 -3.4966,1.30461 -4.6851,1.30461 l -0.81011,0 -0.26099,-0.82793 z m -17.08814,-1.24711 c -0.35283,-2.23401 -1.09127,-4.66862 -2.80559,-9.24996 -2.361,-6.30952 -2.75562,-7.98861 -2.76738,-11.775 -0.009,-2.85404 0.13269,-3.74169 1.04094,-6.52744 0.99217,-3.04311 2.41704,-5.9005 4.54284,-9.11006 0.83913,-1.26694 1.02441,-1.4625 1.38563,-1.4625 0.36118,0 0.5466,0.19565 1.386,1.4625 2.00453,3.02528 3.43036,5.83922 4.43485,8.75234 0.95963,2.78301 1.14669,3.89481 1.14583,6.81016 -0.001,3.82661 -0.4547,5.76377 -2.78123,11.87851 -1.60247,4.21171 -2.43684,6.96501 -2.79184,9.21272 l -0.25803,1.63377 -1.13768,0 -1.13768,0 -0.25666,-1.62504 z m 36.79434,-1.33526 c -0.4879,-0.24472 -1.31779,-0.90431 -2.03103,-1.61425 -1.35415,-1.34787 -2.21062,-2.85886 -2.76183,-4.87243 -0.41568,-1.51848 -0.42806,-4.15175 -0.0236,-5.02802 0.56038,-1.2142 1.51414,-1.725 3.22087,-1.725 2.08429,0 4.0521,0.93002 6.69562,3.16447 2.53531,2.14298 4.60768,3.43553 5.50827,3.43553 0.27843,0 0.34173,0.082 0.34173,0.44257 0,0.80066 -3.32549,3.3142 -7.13954,5.39636 -1.0805,0.58987 -2.19425,1.10445 -2.475,1.14352 -0.36314,0.0505 -0.74856,-0.0484 -1.33546,-0.34275 z m 33.7897,-0.3541 c -2.56659,-1.33946 -4.4872,-2.56181 -6.22454,-3.96153 -1.44597,-1.16498 -1.69695,-1.43123 -1.73716,-1.84289 -0.0408,-0.41796 -9e-4,-0.48118 0.30423,-0.48118 0.90847,0 3.24635,-1.47658 5.81777,-3.67445 1.36028,-1.16267 3.20095,-2.28126 4.3283,-2.63035 1.25258,-0.38787 3.01999,-0.39324 3.8467,-0.0117 1.32614,0.61206 1.725,1.47386 1.725,3.72719 0,3.01695 -1.03312,5.58084 -3.07044,7.6199 -1.18481,1.18583 -2.51311,2.0194 -3.21791,2.0194 -0.16898,0 -0.96636,-0.34398 -1.77195,-0.7644 z m -19.63395,-13.99848 c -0.97405,-0.96498 -1.86321,-1.49567 -4.50761,-2.69033 -2.53854,-1.14684 -3.67245,-1.81688 -4.76589,-2.81623 -1.16665,-1.06624 -1.65725,-2.1262 -1.65725,-3.58052 0,-1.36015 0.27451,-1.9163 1.34536,-2.72572 1.21676,-0.91969 2.79345,-1.35483 5.2184,-1.44018 2.94957,-0.10381 4.52299,0.25723 6.39561,1.46756 l 0.91563,0.5918 -1.3e-4,1.91577 c -1.5e-4,3.21217 -0.3687,6.27633 -1.07369,8.92827 -0.29048,1.09268 -0.33283,1.16097 -0.70511,1.13708 -0.2541,-0.0163 -0.67182,-0.29859 -1.16532,-0.7875 z m 6.56807,-0.34958 c -0.70499,-2.65194 -1.07348,-5.7161 -1.07369,-8.92827 l -1.3e-4,-1.91577 0.91563,-0.5918 c 1.0197,-0.65907 2.22453,-1.15066 3.3373,-1.3617 1.11463,-0.21138 4.08721,-0.16306 5.27207,0.0857 1.34584,0.28256 3.06676,1.12951 3.65395,1.79828 1.29756,1.47785 0.86124,4.09098 -0.9612,5.75658 -1.09344,0.99935 -2.22735,1.66939 -4.76589,2.81623 -2.62401,1.18545 -3.51077,1.71119 -4.58069,2.71575 -1.19485,1.12188 -1.41143,1.07669 -1.79735,-0.375 z"
       id="path4147"
       inkscape:connector-curvature="0" />
  </g>
</svg>
